<?xml version="1.0" encoding="UTF-8" standalone="no"?>
<!-- Created with Inkscape (http://www.inkscape.org/) -->

<svg
   xmlns:dc="http://purl.org/dc/elements/1.1/"
   xmlns:cc="http://creativecommons.org/ns#"
   xmlns:rdf="http://www.w3.org/1999/02/22-rdf-syntax-ns#"
   xmlns:svg="http://www.w3.org/2000/svg"
   xmlns="http://www.w3.org/2000/svg"
   xmlns:sodipodi="http://sodipodi.sourceforge.net/DTD/sodipodi-0.dtd"
   xmlns:inkscape="http://www.inkscape.org/namespaces/inkscape"
   width="16.076605mm"
   height="16.857391mm"
   viewBox="0 0 16.076605 16.857391"
   version="1.1"
   id="svg11092"
   inkscape:version="0.92.4 (unknown)"
   sodipodi:docname="phone.svg">
  <defs
     id="defs11086">
    <clipPath
       clipPathUnits="userSpaceOnUse"
       id="clipPath11048">
      <path
         d="M 1,0 H 1920 V 5238 H 1 Z"
         id="path11046"
         inkscape:connector-curvature="0" />
    </clipPath>
  </defs>
  <sodipodi:namedview
     id="base"
     pagecolor="#ffffff"
     bordercolor="#666666"
     borderopacity="1.0"
     inkscape:pageopacity="0.0"
     inkscape:pageshadow="2"
     inkscape:zoom="0.35"
     inkscape:cx="-399.61902"
     inkscape:cy="-393.85764"
     inkscape:document-units="mm"
     inkscape:current-layer="layer1"
     showgrid="false"
     inkscape:window-width="1859"
     inkscape:window-height="1029"
     inkscape:window-x="61"
     inkscape:window-y="27"
     inkscape:window-maximized="1" />
  <metadata
     id="metadata11089">
    <rdf:RDF>
      <cc:Work
         rdf:about="">
        <dc:format>image/svg+xml</dc:format>
        <dc:type
           rdf:resource="http://purl.org/dc/dcmitype/StillImage" />
        <dc:title></dc:title>
      </cc:Work>
    </rdf:RDF>
  </metadata>
  <g
     inkscape:label="Layer 1"
     inkscape:groupmode="layer"
     id="layer1"
     transform="translate(-63.777175,2.4703204)">
    <g
       transform="matrix(0.35277777,0,0,-0.35277777,-546.64836,1825.2474)"
       id="g11042"
       inkscape:export-xdpi="72"
       inkscape:export-ydpi="72">
      <g
         id="g11044"
         clip-path="url(#clipPath11048)">
        <g
           id="g11050"
           transform="translate(1761.6387,5133.1475)">
          <path
             d="m 0,0 c -3.13,0.197 -6.265,1.11 -9.235,2.596 -4.93,2.465 -9.05,5.988 -12.827,9.94 -2.346,2.455 -4.447,5.112 -6.255,7.993 -1.826,2.906 -2.885,6.068 -2.976,9.503 -0.098,3.652 1.094,6.794 3.961,9.187 1.438,1.201 2.899,1.15 4.237,-0.173 1.977,-1.954 3.944,-3.919 5.9,-5.895 1.377,-1.392 1.404,-2.969 0.062,-4.393 -0.92,-0.976 -1.877,-1.917 -2.846,-2.845 -0.317,-0.305 -0.368,-0.548 -0.167,-0.946 3.112,-6.171 7.742,-10.814 13.919,-13.92 0.407,-0.205 0.656,-0.129 0.95,0.177 0.827,0.861 1.689,1.691 2.52,2.548 1.54,1.59 3.391,1.606 4.93,0.047 C 3.989,11.98 5.819,10.154 7.641,8.32 9.285,6.663 9.278,5.097 7.628,3.424 5.582,1.349 3.182,0.046 0,0"
             style="fill:#ffffff;fill-opacity:1;fill-rule:nonzero;stroke:none"
             id="path11052"
             inkscape:connector-curvature="0" />
        </g>
        <g
           id="g11054"
           transform="translate(1775.8877,5156.0571)">
          <path
             d="m 0,0 c 0.073,-1.516 0.073,-1.516 -1.442,-1.516 -0.122,0 -0.246,0.015 -0.366,-0.002 -0.678,-0.093 -0.921,0.151 -0.931,0.877 -0.137,10.264 -7.881,19.808 -17.921,22.046 -1.581,0.353 -3.218,0.475 -4.837,0.634 -0.591,0.057 -0.848,0.234 -0.774,0.833 0.027,0.216 0,0.439 0.004,0.658 0.033,1.422 -0.275,1.417 1.397,1.296 8.48,-0.615 15.246,-4.352 20.209,-11.271 C -2.086,9.964 -0.212,5.129 0,0"
             style="fill:#ffffff;fill-opacity:1;fill-rule:nonzero;stroke:none"
             id="path11056"
             inkscape:connector-curvature="0" />
        </g>
        <g
           id="g11058"
           transform="translate(1766.5781,5154.5415)">
          <path
             d="m 0,0 c -1.52,0.03 -1.35,-0.233 -1.442,1.35 -0.39,6.716 -5.844,12.836 -12.498,13.977 -0.814,0.14 -1.638,0.226 -2.461,0.281 -0.408,0.028 -0.57,0.165 -0.558,0.567 0.016,0.511 0.026,1.025 -0.004,1.534 -0.031,0.518 0.175,0.666 0.683,0.651 3.793,-0.108 7.217,-1.306 10.235,-3.573 C -1.551,11.408 0.882,6.86 1.365,1.264 1.38,1.094 1.36,0.921 1.385,0.753 1.469,0.181 1.236,-0.065 0.657,-0.003 0.44,0.02 0.22,0 0,0"
             style="fill:#ffffff;fill-opacity:1;fill-rule:nonzero;stroke:none"
             id="path11060"
             inkscape:connector-curvature="0" />
        </g>
        <g
           id="g11062"
           transform="translate(1749.6299,5163.791)">
          <path
             d="M 0,0 C 0,0.768 -0.033,1.52 0.029,2.264 0.041,2.407 0.43,2.636 0.637,2.627 3.444,2.512 5.894,1.48 7.97,-0.397 c 2.366,-2.141 3.608,-4.844 3.909,-8.007 0.059,-0.629 -0.108,-0.913 -0.78,-0.853 -0.58,0.052 -1.317,-0.172 -1.705,0.111 -0.342,0.247 -0.31,1.024 -0.423,1.571 C 8.09,-3.311 5.102,-0.643 0.574,-0.085 0.41,-0.065 0.246,-0.037 0,0"
             style="fill:#ffffff;fill-opacity:1;fill-rule:nonzero;stroke:none"
             id="path11064"
             inkscape:connector-curvature="0" />
        </g>
      </g>
    </g>
  </g>
</svg>
